<svg width="21" height="24" viewBox="0 0 21 24" fill="none" xmlns="http://www.w3.org/2000/svg">
<g clip-path="url(#clip0_334_129)">
<path d="M10.5 21C16.0228 21 20.5 16.5228 20.5 11C20.5 5.47715 16.0228 1 10.5 1C4.97715 1 0.5 5.47715 0.5 11C0.5 16.5228 4.97715 21 10.5 21Z" fill="#FFF59D"/>
<path d="M17 11C17 7.15 13.7 4.1 9.74999 4.55C6.74999 4.9 4.34999 7.3 4.04999 10.3C3.79999 12.6 4.74999 14.65 6.34999 15.95C7.04999 16.55 7.49999 17.4 7.49999 18.35V18.5H13.5V18.45C13.5 17.55 13.9 16.65 14.6 16.05C16.05 14.85 17 13.05 17 11Z" fill="#FBC02D"/>
<path d="M13.8 10.0999L12.3 9.0999C12.15 8.9999 11.9 8.9999 11.75 9.0999L10.5 9.8999L9.29999 9.0999C9.14999 8.9999 8.89999 8.9999 8.74999 9.0999L7.24999 10.0999C7.14999 10.1999 7.04999 10.2999 7.04999 10.4499C7.04999 10.5999 7.04999 10.7499 7.14999 10.8499L9.04999 13.1999V18.4999H10.05V12.9999C10.05 12.8999 9.99999 12.7999 9.94999 12.6999L8.29999 10.6499L9.04999 10.1499L10.25 10.9499C10.4 11.0499 10.65 11.0499 10.8 10.9499L12 10.1499L12.75 10.6499L11.1 12.6999C11.05 12.7999 11 12.8999 11 12.9999V18.4999H12V13.1999L13.9 10.8499C14 10.7499 14.05 10.5999 14 10.4499C13.95 10.2999 13.9 10.1499 13.8 10.0999Z" fill="#FFF59D"/>
<path d="M10.5 23.5C11.3284 23.5 12 22.8284 12 22C12 21.1716 11.3284 20.5 10.5 20.5C9.67157 20.5 9 21.1716 9 22C9 22.8284 9.67157 23.5 10.5 23.5Z" fill="#5C6BC0"/>
<path d="M11.5 22.5H9.5C8.4 22.5 7.5 21.6 7.5 20.5V18H13.5V20.5C13.5 21.6 12.6 22.5 11.5 22.5Z" fill="#9FA8DA"/>
<path d="M13.5 20.5L7.70001 21.3C7.85001 21.65 8.15001 22 8.50001 22.2L13.2 21.55C13.4 21.25 13.5 20.9 13.5 20.5Z" fill="#5C6BC0"/>
<path d="M7.5 19.35V20.35L13.5 19.5V18.5L7.5 19.35Z" fill="#5C6BC0"/>
</g>
<defs>
<clipPath id="clip0_334_129">
<rect width="20" height="24" fill="white" transform="translate(0.5)"/>
</clipPath>
</defs>
</svg>
