<svg width="32" height="32" viewBox="0 0 32 32" fill="none" xmlns="http://www.w3.org/2000/svg">
<rect width="32" height="32" rx="16" fill="white"/>
<path d="M22.1883 9C22.1942 9 22.2021 9 22.21 9C22.4156 9 22.6065 9.06752 22.7629 9.18386L22.7599 9.18178C22.8741 9.28669 22.9508 9.4342 22.9695 9.60039V9.60351C22.9892 9.73024 23 9.87566 23 10.0242C23 10.0917 22.998 10.1582 22.9931 10.2247V10.2153C22.7717 12.6761 21.8115 18.6437 21.3235 21.3984C21.1169 22.5649 20.7106 22.9555 20.3171 22.9929C19.4621 23.077 18.8128 22.3967 17.9844 21.8233C16.6877 20.9248 15.9547 20.3659 14.6964 19.4903C13.2413 18.4796 14.1848 17.9218 15.0132 17.0139C15.2306 16.775 18.9997 13.155 19.0735 12.8267C19.0774 12.807 19.0794 12.7852 19.0794 12.7623C19.0794 12.6813 19.0509 12.6076 19.0046 12.5515C18.9535 12.5161 18.8895 12.4964 18.8226 12.4964C18.7783 12.4964 18.736 12.5058 18.6967 12.5213L18.6987 12.5203C18.5688 12.5515 16.4975 13.9967 12.4847 16.856C12.0469 17.2206 11.494 17.4512 10.8919 17.4782H10.886C10.033 17.3692 9.25873 17.1687 8.5238 16.883L8.59661 16.9079C7.67377 16.5901 6.94081 16.4229 7.00377 15.8848C7.03722 15.605 7.40256 15.3187 8.09977 15.0257C12.3946 13.0501 15.2585 11.7478 16.6916 11.119C18.2727 10.233 20.1055 9.50379 22.0329 9.03116L22.1883 9Z" fill="black"/>
</svg>
