<svg width="32" height="32" viewBox="0 0 32 32" fill="none" xmlns="http://www.w3.org/2000/svg">
<rect width="32" height="32" rx="16" fill="white"/>
<path fill-rule="evenodd" clip-rule="evenodd" d="M8.91666 16C8.91666 12.088 12.088 8.91667 16 8.91667C19.912 8.91667 23.0833 12.088 23.0833 16C23.0833 19.912 19.912 23.0833 16 23.0833C14.6065 23.0833 13.3094 22.6818 12.215 21.9884C12.0113 21.8594 11.7617 21.8249 11.5307 21.8938L9.13139 22.6099L10.0348 20.4961C10.1415 20.2462 10.1198 19.9601 9.97654 19.7292C9.30473 18.6467 8.91666 17.3699 8.91666 16ZM16 7.25C11.1675 7.25 7.25 11.1675 7.25 16C7.25 17.5317 7.64428 18.9736 8.33719 20.2273L6.90037 23.5892C6.77335 23.8864 6.82966 24.2302 7.04483 24.4714C7.26001 24.7127 7.59525 24.8077 7.90497 24.7152L11.6545 23.5962C12.9354 24.3304 14.4197 24.75 16 24.75C20.8325 24.75 24.75 20.8325 24.75 16C24.75 11.1675 20.8325 7.25 16 7.25ZM17.9104 17.8187L16.8152 18.5901C16.3023 18.2979 15.7352 17.8901 15.1664 17.3212C14.5751 16.7299 14.1367 16.1194 13.8134 15.5594L14.5094 14.9687C14.8081 14.7152 14.8898 14.2878 14.7058 13.9419L13.819 12.2752C13.6996 12.0508 13.4843 11.8932 13.2343 11.8471C12.9843 11.8011 12.7269 11.8717 12.5354 12.0388L12.2724 12.2683C11.6402 12.8201 11.2662 13.7269 11.5762 14.6451C11.8975 15.5969 12.5832 17.095 13.9879 18.4997C15.4992 20.0111 17.0344 20.6062 17.9321 20.8374C18.6555 21.0236 19.34 20.774 19.8223 20.381L20.3152 19.9793C20.5261 19.8076 20.6398 19.5437 20.62 19.2724C20.6001 19.0012 20.4491 18.7567 20.2154 18.6174L18.8168 17.7841C18.5343 17.6158 18.1793 17.6293 17.9104 17.8187Z" fill="black"/>
</svg>
